<?xml version="1.0" standalone="no"?><!DOCTYPE svg PUBLIC "-//W3C//DTD SVG 1.1//EN" "http://www.w3.org/Graphics/SVG/1.1/DTD/svg11.dtd"><svg t="1480665762384" class="icon" style="" viewBox="0 0 1024 1024" version="1.1" xmlns="http://www.w3.org/2000/svg" p-id="3408" xmlns:xlink="http://www.w3.org/1999/xlink" width="200" height="200"><defs><style type="text/css"></style></defs><path d="M887.36 311.488c5.888-5.824 9.472-13.824 9.472-22.72L896.832 160.832c0-17.664-14.336-32-32-32l-122.368 0c-10.624-2.24-22.016 0.128-30.208 8.384L479.488 370.688 248.128 139.2C239.936 130.944 228.544 128.576 217.984 130.816L95.936 130.816C78.336 130.816 64 145.088 64 162.688l0 127.296C64 298.88 67.648 306.816 73.472 312.64 73.6 312.768 73.664 312.96 73.792 313.152l231.808 231.936-144.128 144.448-40.192-40.448c-12.864-12.928-33.792-12.928-46.656 0-12.928 12.928-12.928 33.856 0 46.784l103.104 103.808L75.52 903.424c-12.928 12.928-12.928 33.92 0 46.848 12.864 12.928 33.792 12.928 46.656 0l102.208-103.68 102.976 103.68c12.864 12.928 33.792 12.928 46.656 0 12.928-12.928 12.928-33.856 0-46.784l-38.4-38.656 144.704-144.896 143.616 143.616-38.336 38.528c-12.864 12.864-12.864 33.728 0 46.656s33.728 12.864 46.656 0l102.72-103.168 101.76 102.848c12.864 12.864 33.728 12.864 46.656 0s12.864-33.728 0-46.656l-101.888-102.912 102.848-103.296c12.864-12.864 12.864-33.728 0-46.656s-33.728-12.864-46.656 0l-40.064 40.192-143.488-143.552 232.768-233.472C887.168 311.872 887.232 311.616 887.36 311.488zM127.872 273.92 127.872 194.496l82.368 0 222.72 222.848L352.192 498.368 127.872 273.92zM751.232 735.808l-80.768 81.088L526.848 673.28l80.832-81.088L751.232 735.808zM832.896 272.64l-543.808 545.28-80.96-81.408 542.144-543.616 82.624 0L832.896 272.64z" p-id="3409" fill="#515151"></path></svg>